<svg xmlns="http://www.w3.org/2000/svg" width="960" height="520" viewBox="0 0 960 520">
  <defs>
    <style>
      .title { font: 700 18px sans-serif; fill: #1b1f23; }
      .label { font: 600 13px sans-serif; fill: #1b1f23; }
      .text { font: 12px sans-serif; fill: #1b1f23; }
      .box { fill: #f7f9fb; stroke: #4b5563; stroke-width: 1.5; }
      .inner { fill: #ffffff; stroke: #9ca3af; stroke-width: 1.2; }
      .arrow { stroke: #374151; stroke-width: 1.4; fill: none; marker-end: url(#arrowhead); }
    </style>
    <marker id="arrowhead" markerWidth="10" markerHeight="7" refX="9" refY="3.5" orient="auto">
      <polygon points="0 0, 10 3.5, 0 7" fill="#374151" />
    </marker>
  </defs>

  <rect x="20" y="20" width="920" height="480" rx="12" class="box" />
  <text x="40" y="48" class="title">VM 172.19.8.28</text>

  <rect x="60" y="70" width="840" height="360" rx="10" class="box" />
  <text x="80" y="98" class="label">kind cluster: pypnm-dev</text>

  <rect x="90" y="130" width="220" height="90" rx="8" class="inner" />
  <text x="110" y="155" class="label">namespace: pypnm-cmts-0</text>
  <text x="110" y="175" class="text">pypnm-api svc/pod</text>

  <rect x="90" y="240" width="220" height="90" rx="8" class="inner" />
  <text x="110" y="265" class="label">namespace: pypnm-cmts-1</text>
  <text x="110" y="285" class="text">pypnm-api svc/pod</text>

  <rect x="90" y="350" width="220" height="60" rx="8" class="inner" />
  <text x="110" y="382" class="label">...</text>

  <rect x="330" y="130" width="200" height="90" rx="8" class="inner" />
  <text x="350" y="155" class="label">port-forward</text>
  <text x="350" y="175" class="text">8100 -> 8000</text>

  <rect x="330" y="240" width="200" height="90" rx="8" class="inner" />
  <text x="350" y="265" class="label">port-forward</text>
  <text x="350" y="285" class="text">8101 -> 8000</text>

  <rect x="330" y="350" width="200" height="60" rx="8" class="inner" />
  <text x="350" y="382" class="label">8109 -> 8000</text>

  <rect x="560" y="130" width="330" height="90" rx="8" class="inner" />
  <text x="580" y="165" class="label">http://127.0.0.1:8100/health</text>

  <rect x="560" y="240" width="330" height="90" rx="8" class="inner" />
  <text x="580" y="275" class="label">http://127.0.0.1:8101/health</text>

  <rect x="560" y="350" width="330" height="60" rx="8" class="inner" />
  <text x="580" y="382" class="label">http://127.0.0.1:8109/health</text>

  <path d="M310 175 L330 175" class="arrow" />
  <path d="M310 285 L330 285" class="arrow" />
  <path d="M310 380 L330 380" class="arrow" />

  <path d="M530 175 L560 175" class="arrow" />
  <path d="M530 285 L560 285" class="arrow" />
  <path d="M530 380 L560 380" class="arrow" />
</svg>
